<mxfile host="Electron" agent="Mozilla/5.0 (Macintosh; Intel Mac OS X 10_15_7) AppleWebKit/537.36 (KHTML, like Gecko) draw.io/24.7.8 Chrome/128.0.6613.36 Electron/32.0.1 Safari/537.36" version="24.7.8">
  <diagram name="Page-1" id="9p0XPCKJyCc4x-E8GtiI">
    <mxGraphModel dx="3275" dy="3604" grid="1" gridSize="10" guides="1" tooltips="1" connect="1" arrows="1" fold="1" page="1" pageScale="1" pageWidth="827" pageHeight="1169" math="0" shadow="0">
      <root>
        <mxCell id="0" />
        <mxCell id="1" parent="0" />
        <mxCell id="d2Zy5nHWQ3GRUWoc2xVP-1" value="" style="ellipse;shape=cloud;whiteSpace=wrap;html=1;fillColor=#f5f5f5;fontColor=#333333;strokeColor=#666666;" vertex="1" parent="1">
          <mxGeometry x="90" y="-2280" width="337.5" height="308" as="geometry" />
        </mxCell>
        <mxCell id="d2Zy5nHWQ3GRUWoc2xVP-2" style="rounded=0;orthogonalLoop=1;jettySize=auto;html=1;strokeWidth=1;" edge="1" parent="1" source="d2Zy5nHWQ3GRUWoc2xVP-9" target="d2Zy5nHWQ3GRUWoc2xVP-7">
          <mxGeometry relative="1" as="geometry" />
        </mxCell>
        <mxCell id="d2Zy5nHWQ3GRUWoc2xVP-3" value="&lt;font style=&quot;font-size: 15px;&quot; color=&quot;#000000&quot;&gt;Alice&lt;/font&gt;" style="shape=umlActor;verticalLabelPosition=bottom;verticalAlign=top;html=1;outlineConnect=0;strokeWidth=1;" vertex="1" parent="1">
          <mxGeometry x="-760" y="-2048" width="30" height="60" as="geometry" />
        </mxCell>
        <mxCell id="d2Zy5nHWQ3GRUWoc2xVP-4" value="new order single" style="rounded=0;orthogonalLoop=1;jettySize=auto;html=1;strokeWidth=1;fillColor=#008a00;strokeColor=#000000;" edge="1" parent="1" source="d2Zy5nHWQ3GRUWoc2xVP-7" target="d2Zy5nHWQ3GRUWoc2xVP-10">
          <mxGeometry x="-0.0303" y="15" relative="1" as="geometry">
            <mxPoint as="offset" />
          </mxGeometry>
        </mxCell>
        <mxCell id="d2Zy5nHWQ3GRUWoc2xVP-5" value="notifications" style="rounded=0;orthogonalLoop=1;jettySize=auto;html=1;strokeWidth=1;" edge="1" parent="1" source="d2Zy5nHWQ3GRUWoc2xVP-7" target="d2Zy5nHWQ3GRUWoc2xVP-13">
          <mxGeometry x="-0.2253" y="26" relative="1" as="geometry">
            <mxPoint as="offset" />
          </mxGeometry>
        </mxCell>
        <mxCell id="d2Zy5nHWQ3GRUWoc2xVP-6" value="deposit&lt;div&gt;withdraw request&lt;/div&gt;" style="rounded=0;orthogonalLoop=1;jettySize=auto;html=1;align=left;" edge="1" parent="1" source="d2Zy5nHWQ3GRUWoc2xVP-7" target="d2Zy5nHWQ3GRUWoc2xVP-14">
          <mxGeometry x="0.1138" y="14" relative="1" as="geometry">
            <mxPoint as="offset" />
          </mxGeometry>
        </mxCell>
        <mxCell id="d2Zy5nHWQ3GRUWoc2xVP-7" value="&lt;div&gt;Backend&lt;/div&gt;" style="rounded=0;whiteSpace=wrap;html=1;strokeWidth=1;fillColor=#d5e8d4;strokeColor=#82b366;" vertex="1" parent="1">
          <mxGeometry x="-440" y="-1958" width="120" height="60" as="geometry" />
        </mxCell>
        <mxCell id="d2Zy5nHWQ3GRUWoc2xVP-8" value="" style="rounded=0;orthogonalLoop=1;jettySize=auto;html=1;strokeWidth=1;" edge="1" parent="1" source="d2Zy5nHWQ3GRUWoc2xVP-3" target="d2Zy5nHWQ3GRUWoc2xVP-9">
          <mxGeometry relative="1" as="geometry">
            <mxPoint x="-730" y="-1874" as="sourcePoint" />
            <mxPoint x="-450" y="-1898" as="targetPoint" />
          </mxGeometry>
        </mxCell>
        <mxCell id="d2Zy5nHWQ3GRUWoc2xVP-9" value="Frontend" style="shape=umlBoundary;whiteSpace=wrap;html=1;strokeWidth=1;fillColor=#d5e8d4;strokeColor=#82b366;" vertex="1" parent="1">
          <mxGeometry x="-620" y="-2023" width="100" height="80" as="geometry" />
        </mxCell>
        <mxCell id="d2Zy5nHWQ3GRUWoc2xVP-10" value="Index Maker" style="rounded=0;whiteSpace=wrap;html=1;fillColor=#fff2cc;strokeColor=#d6b656;strokeWidth=1;" vertex="1" parent="1">
          <mxGeometry x="-155" y="-1973" width="170" height="90" as="geometry" />
        </mxCell>
        <mxCell id="d2Zy5nHWQ3GRUWoc2xVP-11" value="&lt;font style=&quot;font-size: 13px;&quot;&gt;verification&lt;/font&gt;" style="rounded=0;orthogonalLoop=1;jettySize=auto;html=1;startArrow=classic;startFill=1;fillColor=#008a00;strokeColor=#000000;strokeWidth=2;align=left;" edge="1" parent="1" source="d2Zy5nHWQ3GRUWoc2xVP-13" target="d2Zy5nHWQ3GRUWoc2xVP-10">
          <mxGeometry x="-0.0753" y="10" relative="1" as="geometry">
            <mxPoint as="offset" />
          </mxGeometry>
        </mxCell>
        <mxCell id="d2Zy5nHWQ3GRUWoc2xVP-12" value="mint&lt;div&gt;withdraw&lt;/div&gt;&lt;div&gt;solver weights&lt;/div&gt;" style="rounded=0;orthogonalLoop=1;jettySize=auto;html=1;strokeWidth=1;fillColor=#008a00;strokeColor=#000000;align=left;startArrow=classic;startFill=1;" edge="1" parent="1" source="d2Zy5nHWQ3GRUWoc2xVP-10" target="d2Zy5nHWQ3GRUWoc2xVP-14">
          <mxGeometry x="0.1643" y="16" relative="1" as="geometry">
            <mxPoint as="offset" />
          </mxGeometry>
        </mxCell>
        <mxCell id="d2Zy5nHWQ3GRUWoc2xVP-13" value="&lt;div&gt;&lt;b&gt;&lt;font style=&quot;font-size: 16px;&quot;&gt;Guardian&lt;/font&gt;&lt;/b&gt;&lt;/div&gt;" style="rounded=0;whiteSpace=wrap;html=1;fillColor=#f8cecc;strokeColor=#b85450;strokeWidth=3;" vertex="1" parent="1">
          <mxGeometry x="-130" y="-2126" width="120" height="60" as="geometry" />
        </mxCell>
        <mxCell id="d2Zy5nHWQ3GRUWoc2xVP-14" value="Blockchain" style="shape=cylinder3;whiteSpace=wrap;html=1;boundedLbl=1;backgroundOutline=1;size=15;fillColor=#e1d5e7;strokeColor=#000000;strokeWidth=1;" vertex="1" parent="1">
          <mxGeometry x="-245" y="-1823" width="80" height="80" as="geometry" />
        </mxCell>
        <mxCell id="d2Zy5nHWQ3GRUWoc2xVP-15" value="new order single" style="rounded=0;orthogonalLoop=1;jettySize=auto;html=1;fillColor=#1ba1e2;strokeColor=#000000;strokeWidth=1;align=left;" edge="1" parent="1" source="d2Zy5nHWQ3GRUWoc2xVP-1" target="d2Zy5nHWQ3GRUWoc2xVP-10">
          <mxGeometry x="0.127" y="11" relative="1" as="geometry">
            <mxPoint as="offset" />
          </mxGeometry>
        </mxCell>
        <mxCell id="d2Zy5nHWQ3GRUWoc2xVP-16" value="notifications" style="rounded=0;orthogonalLoop=1;jettySize=auto;html=1;fillColor=#1ba1e2;strokeColor=#000000;strokeWidth=1;" edge="1" parent="1" source="d2Zy5nHWQ3GRUWoc2xVP-1" target="d2Zy5nHWQ3GRUWoc2xVP-13">
          <mxGeometry x="-0.0231" y="-17" relative="1" as="geometry">
            <mxPoint as="offset" />
          </mxGeometry>
        </mxCell>
        <mxCell id="d2Zy5nHWQ3GRUWoc2xVP-17" style="rounded=0;orthogonalLoop=1;jettySize=auto;html=1;" edge="1" parent="1" source="d2Zy5nHWQ3GRUWoc2xVP-18" target="d2Zy5nHWQ3GRUWoc2xVP-20">
          <mxGeometry relative="1" as="geometry" />
        </mxCell>
        <mxCell id="d2Zy5nHWQ3GRUWoc2xVP-18" value="&lt;font style=&quot;font-size: 15px;&quot; color=&quot;#000000&quot;&gt;Mary&lt;/font&gt;" style="shape=umlActor;verticalLabelPosition=bottom;verticalAlign=top;html=1;outlineConnect=0;strokeWidth=1;" vertex="1" parent="1">
          <mxGeometry x="-760" y="-1913" width="30" height="60" as="geometry" />
        </mxCell>
        <mxCell id="d2Zy5nHWQ3GRUWoc2xVP-19" style="rounded=0;orthogonalLoop=1;jettySize=auto;html=1;" edge="1" parent="1" source="d2Zy5nHWQ3GRUWoc2xVP-20" target="d2Zy5nHWQ3GRUWoc2xVP-7">
          <mxGeometry relative="1" as="geometry" />
        </mxCell>
        <mxCell id="d2Zy5nHWQ3GRUWoc2xVP-20" value="Frontend" style="shape=umlBoundary;whiteSpace=wrap;html=1;strokeWidth=1;fillColor=#d5e8d4;strokeColor=#82b366;" vertex="1" parent="1">
          <mxGeometry x="-620" y="-1898" width="100" height="80" as="geometry" />
        </mxCell>
        <mxCell id="d2Zy5nHWQ3GRUWoc2xVP-21" value="Trading Bots" style="text;html=1;align=center;verticalAlign=middle;resizable=0;points=[];autosize=1;strokeColor=none;fillColor=none;" vertex="1" parent="1">
          <mxGeometry x="230" y="-1973" width="90" height="30" as="geometry" />
        </mxCell>
        <mxCell id="d2Zy5nHWQ3GRUWoc2xVP-22" value="" style="group" vertex="1" connectable="0" parent="1">
          <mxGeometry x="255" y="-2203" width="65" height="70" as="geometry" />
        </mxCell>
        <mxCell id="d2Zy5nHWQ3GRUWoc2xVP-23" value="" style="ellipse;shape=umlControl;whiteSpace=wrap;html=1;strokeColor=#000000;strokeWidth=1;" vertex="1" parent="d2Zy5nHWQ3GRUWoc2xVP-22">
          <mxGeometry width="65" height="70" as="geometry" />
        </mxCell>
        <mxCell id="d2Zy5nHWQ3GRUWoc2xVP-24" value="" style="shape=umlActor;verticalLabelPosition=bottom;verticalAlign=top;html=1;outlineConnect=0;strokeWidth=1;" vertex="1" parent="d2Zy5nHWQ3GRUWoc2xVP-22">
          <mxGeometry x="21.02941176470588" y="15.555555555555557" width="22.941176470588236" height="46.66666666666667" as="geometry" />
        </mxCell>
        <mxCell id="d2Zy5nHWQ3GRUWoc2xVP-25" value="" style="group" vertex="1" connectable="0" parent="1">
          <mxGeometry x="165" y="-2188" width="65" height="70" as="geometry" />
        </mxCell>
        <mxCell id="d2Zy5nHWQ3GRUWoc2xVP-26" value="" style="ellipse;shape=umlControl;whiteSpace=wrap;html=1;strokeColor=#000000;strokeWidth=1;" vertex="1" parent="d2Zy5nHWQ3GRUWoc2xVP-25">
          <mxGeometry width="65" height="70" as="geometry" />
        </mxCell>
        <mxCell id="d2Zy5nHWQ3GRUWoc2xVP-27" value="" style="shape=umlActor;verticalLabelPosition=bottom;verticalAlign=top;html=1;outlineConnect=0;strokeWidth=1;" vertex="1" parent="d2Zy5nHWQ3GRUWoc2xVP-25">
          <mxGeometry x="21.02941176470588" y="15.555555555555557" width="22.941176470588236" height="46.66666666666667" as="geometry" />
        </mxCell>
        <mxCell id="d2Zy5nHWQ3GRUWoc2xVP-28" value="" style="group" vertex="1" connectable="0" parent="1">
          <mxGeometry x="320" y="-2118" width="65" height="70" as="geometry" />
        </mxCell>
        <mxCell id="d2Zy5nHWQ3GRUWoc2xVP-29" value="" style="ellipse;shape=umlControl;whiteSpace=wrap;html=1;strokeColor=#000000;strokeWidth=1;" vertex="1" parent="d2Zy5nHWQ3GRUWoc2xVP-28">
          <mxGeometry width="65" height="70" as="geometry" />
        </mxCell>
        <mxCell id="d2Zy5nHWQ3GRUWoc2xVP-30" value="" style="shape=umlActor;verticalLabelPosition=bottom;verticalAlign=top;html=1;outlineConnect=0;strokeWidth=1;" vertex="1" parent="d2Zy5nHWQ3GRUWoc2xVP-28">
          <mxGeometry x="21.02941176470588" y="15.555555555555557" width="22.941176470588236" height="46.66666666666667" as="geometry" />
        </mxCell>
        <mxCell id="d2Zy5nHWQ3GRUWoc2xVP-31" value="" style="group" vertex="1" connectable="0" parent="1">
          <mxGeometry x="227.5" y="-2103" width="65" height="70" as="geometry" />
        </mxCell>
        <mxCell id="d2Zy5nHWQ3GRUWoc2xVP-32" value="" style="ellipse;shape=umlControl;whiteSpace=wrap;html=1;strokeColor=#000000;strokeWidth=1;" vertex="1" parent="d2Zy5nHWQ3GRUWoc2xVP-31">
          <mxGeometry width="65" height="70" as="geometry" />
        </mxCell>
        <mxCell id="d2Zy5nHWQ3GRUWoc2xVP-33" value="" style="shape=umlActor;verticalLabelPosition=bottom;verticalAlign=top;html=1;outlineConnect=0;strokeWidth=1;" vertex="1" parent="d2Zy5nHWQ3GRUWoc2xVP-31">
          <mxGeometry x="21.02941176470588" y="15.555555555555557" width="22.941176470588236" height="46.66666666666667" as="geometry" />
        </mxCell>
      </root>
    </mxGraphModel>
  </diagram>
</mxfile>
